<?xml version="1.0" encoding="UTF-8" standalone="no"?>
<!-- Created with Inkscape (http://www.inkscape.org/) -->

<svg
   version="1.1"
   id="svg1"
   width="490.29333"
   height="491.51999"
   fill = "white"
   viewBox="0 0 490.29333 491.51999"
   sodipodi:docname="profile.eps"
   xmlns:inkscape="http://www.inkscape.org/namespaces/inkscape"
   xmlns:sodipodi="http://sodipodi.sourceforge.net/DTD/sodipodi-0.dtd"
   xmlns="http://www.w3.org/2000/svg"
   xmlns:svg="http://www.w3.org/2000/svg">
  <defs
     id="defs1" />
  <sodipodi:namedview
     id="namedview1"
     pagecolor="#ffffff"
     bordercolor="#000000"
     borderopacity="0.25"
     inkscape:showpageshadow="2"
     inkscape:pageopacity="0.0"
     inkscape:pagecheckerboard="0"
     inkscape:deskcolor="#d1d1d1">
    <inkscape:page
       x="0"
       y="0"
       inkscape:label="1"
       id="page1"
       width="490.29333"
       height="491.51999"
       margin="0"
       bleed="0" />
  </sodipodi:namedview>
  <g
     id="g1"
     inkscape:groupmode="layer"
     inkscape:label="1">
    <path
       id="path1"
       d="m 2330.38,1537.8 c 739.47,39.78 1346.84,-502.67 1346.84,-1113.445 L 3677.22,0 H 0 V 424.355 C 0,1035.23 607.359,1577.32 1346.85,1537.8 c 139.64,-111.85 309.07,-177.44 491.76,-177.44 182.69,0 352.12,65.59 491.77,177.44"
       style="fill:#000000;fill-opacity:1;fill-rule:evenodd;stroke:none"
       transform="matrix(0.13333333,0,0,-0.13333333,0,491.52)" />
    <path
       id="path2"
       d="m 1838.61,3686.4 c 512.64,0 928.22,-312.6 928.22,-914.06 0,-601.46 -415.58,-1183.25 -928.22,-1183.25 -512.64,0 -928.219,581.79 -928.219,1183.25 0,601.46 415.579,914.06 928.219,914.06 z M 1081.72,2645.57 c 20.19,-184.93 83.75,-368.02 183.79,-523.03 102.62,-159.02 255.58,-304.14 443.12,-352.45 42.52,-10.95 86.07,-16.63 129.98,-16.63 43.91,0 87.47,5.68 129.98,16.63 187.54,48.31 340.51,193.43 443.12,352.45 101.2,156.81 188.16,341.4 184.48,529.48 -12.22,624.5 -546.33,205.02 -1138.5,510.64 -194.38,-428.25 -412.39,-183.18 -375.97,-517.09"
       style="fill:#000000;fill-opacity:1;fill-rule:evenodd;stroke:none"
       transform="matrix(0.13333333,0,0,-0.13333333,0,491.52)" />
  </g>
</svg>
